<svg data-name="Layer 1" xmlns="http://www.w3.org/2000/svg" viewBox="0 0 40.576 42.5"><title>100logo</title><ellipse cx="16.89" cy="3.25" rx="15.39" ry="1.75" fill="#d8d4d5" stroke="#d8d4d5" stroke-linecap="round" stroke-linejoin="round" stroke-width="3"/><path d="M1.5 3.156l6.333 36.417s8.833 3.125 17.5.125c0 0 5.665-29.574 6.947-36.448M30.87 10.156c.71-3.665 1.247-6.35 1.41-6.92" fill="#d8d4d5" stroke="#d8d4d5" stroke-linecap="round" stroke-linejoin="round" stroke-width="3"/><path d="M35.733 10.156h-4.9l-3 17h6.258a2.75 2.75 0 0 0 2.695-2.2l2.22-10.784a3.345 3.345 0 0 0-3.272-4.016zM32.52 23.97l-4.12-.007 1.883-10.67h3.57a1.85 1.85 0 0 1 1.816 2.2l-1.483 6.98a1.693 1.693 0 0 1-1.67 1.498z" fill="#d8d4d5" stroke="#d8d4d5" stroke-linecap="round" stroke-linejoin="round" stroke-width="3"/><path d="M8.155 33.587l.794 4.235a.642.642 0 0 0 .434.46 25.1 25.1 0 0 0 14.487.077.633.633 0 0 0 .4-.454l.912-4.33a.618.618 0 0 0-.428-.785 36.253 36.253 0 0 0-16.164 0 .65.65 0 0 0-.435.797z" fill="#231f20"/><path d="M9.14 33.856a29.513 29.513 0 0 0 8.77 1.042" fill="none" stroke="#d8d4d5" stroke-linecap="round" stroke-miterlimit="10" stroke-width=".5"/><ellipse cx="16.89" cy="3.25" rx="15.39" ry="1.75" fill="none" stroke="#231f20" stroke-linecap="round" stroke-linejoin="round"/><path d="M1.5 3.156l6.333 36.417s8.833 3.125 17.5.125c0 0 1.045-5.668 2.327-12.542M30.87 10.156c.71-3.665 1.247-6.35 1.41-6.92" fill="none" stroke="#231f20" stroke-linecap="round" stroke-linejoin="round"/><path d="M27.833 27.156h6.258a2.75 2.75 0 0 0 2.695-2.2l2.22-10.784a3.345 3.345 0 0 0-3.277-4.02h-4.895" fill="none" stroke="#231f20" stroke-linecap="round" stroke-linejoin="round"/><path d="M34.102 22.91l1.79-8.294a1.206 1.206 0 0 0-1.178-1.46h-4.418c-.65 3.4-1.378 7.274-2.075 11h4.34A1.58 1.58 0 0 0 34.1 22.91zM24.525 29.594c2.388-12.37 4.2-21.43 4.756-23.36" fill="none" stroke="#231f20" stroke-linecap="round" stroke-linejoin="round"/></svg>